HIERARCHY
ROOT joint_Root
{
	OFFSET 0.0 0.0 0.0
	CHANNELS 6 Xposition Yposition Zposition Zrotation Xrotation Yrotation 
	JOINT Hips
	{
		OFFSET -0.726466 93.3139 -2.00062
		CHANNELS 6 Xposition Yposition Zposition Zrotation Xrotation Yrotation 
		JOINT Spine
		{
			OFFSET 15.7357 0.0 0.0
			CHANNELS 6 Xposition Yposition Zposition Zrotation Xrotation Yrotation 
			JOINT Chest
			{
				OFFSET 8.98455 -0.406207 0.0
				CHANNELS 6 Xposition Yposition Zposition Zrotation Xrotation Yrotation 
				JOINT Neck
				{
					OFFSET 16.3773 0.0 0.0
					CHANNELS 6 Xposition Yposition Zposition Zrotation Xrotation Yrotation 
					JOINT Head
					{
						OFFSET 6.45672 0.0 0.0
						CHANNELS 6 Xposition Yposition Zposition Zrotation Xrotation Yrotation 
						End Site
						{
							OFFSET 0.0 0.0 0.0
						}
					}
				}
				JOINT Shoulder_L
				{
					OFFSET 12.9942 -0.242716 4.98039
					CHANNELS 6 Xposition Yposition Zposition Zrotation Xrotation Yrotation 
					JOINT UpperArm_L
					{
						OFFSET 5.34809 0.0 0.0
						CHANNELS 6 Xposition Yposition Zposition Zrotation Xrotation Yrotation 
						JOINT LowerArm_L
						{
							OFFSET 24.3286 1.87007e-05 0.0
							CHANNELS 6 Xposition Yposition Zposition Zrotation Xrotation Yrotation 
							JOINT Hand_L
							{
								OFFSET 22.2916 0.0 0.0
								CHANNELS 6 Xposition Yposition Zposition Zrotation Xrotation Yrotation 
								End Site
								{
									OFFSET 0.0 0.0 0.0
								}
							}
						}
					}
				}
				JOINT Shoulder_R
				{
					OFFSET 12.9945 -0.242716 -4.98039
					CHANNELS 6 Xposition Yposition Zposition Zrotation Xrotation Yrotation 
					JOINT UpperArm_R
					{
						OFFSET -5.34813 0.0 0.0
						CHANNELS 6 Xposition Yposition Zposition Zrotation Xrotation Yrotation 
						JOINT LowerArm_R
						{
							OFFSET -24.3289 0.000322201 0.0
							CHANNELS 6 Xposition Yposition Zposition Zrotation Xrotation Yrotation 
							JOINT Hand_R
							{
								OFFSET -22.2915 -0.000108084 0.0
								CHANNELS 6 Xposition Yposition Zposition Zrotation Xrotation Yrotation 
								End Site
								{
									OFFSET 0.0 0.0 0.0
								}
							}
						}
					}
				}
			}
		}
		JOINT UpperLeg_L
		{
			OFFSET -2.19248 -6.46944 0.0
			CHANNELS 6 Xposition Yposition Zposition Zrotation Xrotation Yrotation 
			JOINT LowerLeg_L
			{
				OFFSET 39.0811 0.0 -1.23785e-05
				CHANNELS 6 Xposition Yposition Zposition Zrotation Xrotation Yrotation 
				JOINT Foot_L
				{
					OFFSET 40.9854 0.0 -1.26872e-05
					CHANNELS 6 Xposition Yposition Zposition Zrotation Xrotation Yrotation 
					JOINT Toes_L
					{
						OFFSET 11.7543 0.0 0.0
						CHANNELS 6 Xposition Yposition Zposition Zrotation Xrotation Yrotation 
						End Site
						{
							OFFSET 0.0 0.0 0.0
						}
					}
				}
			}
		}
		JOINT UpperLeg_R
		{
			OFFSET -2.19251 6.46944 0.0
			CHANNELS 6 Xposition Yposition Zposition Zrotation Xrotation Yrotation 
			JOINT LowerLeg_R
			{
				OFFSET -39.0811 -0.00228153 -0.0401928
				CHANNELS 6 Xposition Yposition Zposition Zrotation Xrotation Yrotation 
				JOINT Foot_R
				{
					OFFSET -40.9854 0.0 0.0
					CHANNELS 6 Xposition Yposition Zposition Zrotation Xrotation Yrotation 
					JOINT Toes_R
					{
						OFFSET -11.7543 0.0 0.0
						CHANNELS 6 Xposition Yposition Zposition Zrotation Xrotation Yrotation 
						End Site
						{
							OFFSET 0.0 0.0 0.0
						}
					}
				}
			}
		}
	}
}
MOTION
Frames:	4
Frame Time:	0.0333333
0.000000 0.000000 0.000000 0.000000 0.000000 -0.000000 137.145000 87.122200 146.943000 89.597000 -36.801600 3.187720 15.735700 0.000005 -0.000001 107.991000 81.269100 -107.310000 8.984550 -0.406207 -0.000000 8.839110 5.372420 0.947489 16.377300 -0.000001 -0.000001 10.130000 -17.345000 5.573070 6.456720 -0.000001 -0.000000 4.271740 -32.805000 2.774370 12.994200 -0.242716 4.980390 -88.765300 -2.549540 -64.148800 5.348090 -0.000007 -0.000001 -69.324100 33.436800 6.556590 24.328600 0.000019 0.000005 6.546800 10.029600 -33.383200 22.291600 -0.000001 0.000005 0.674517 5.510220 -6.950630 12.994500 -0.242716 -4.980390 90.185900 -0.488799 -69.181800 -5.348130 -0.000001 -0.000004 -49.415700 26.336000 -33.423900 -24.328900 0.000322 -0.000009 4.323450 3.985670 -47.413000 -22.291500 -0.000108 -0.000004 6.561550 5.553310 -8.863460 -2.192480 -6.469440 -0.000000 -164.545000 -3.091910 -21.810300 39.081100 -0.000007 -0.000012 -0.146587 0.577514 14.242400 40.985400 -0.000006 -0.000013 -15.705100 4.328960 -57.897100 11.754300 -0.000000 0.000003 -0.008297 -0.090446 -20.260100 -2.192510 6.469440 -0.000001 177.559000 4.049450 -170.568000 -39.081100 -0.002282 -0.040193 -0.015209 0.030735 31.055900 -40.985400 0.000008 0.000006 11.933200 12.058500 -80.454400 -11.754300 -0.000006 -0.000006 -0.610379 -0.736951 -23.068000
0.000000 0.000000 0.000000 0.000000 0.000000 -0.000000 136.493000 86.402700 151.194000 91.498600 -39.499700 4.076510 15.735700 0.000005 -0.000001 106.195000 81.443300 -106.236000 8.984550 -0.406207 -0.000000 8.692220 4.749150 -0.443396 16.377300 -0.000001 -0.000001 10.684400 -16.841300 5.431980 6.456720 -0.000001 -0.000000 3.974370 -31.699300 3.098440 12.994200 -0.242716 4.980390 -89.047900 -1.979650 -64.308400 5.348090 -0.000007 -0.000001 -68.385900 33.010000 5.921350 24.328600 0.000019 0.000005 6.454550 9.810830 -33.581500 22.291600 -0.000001 0.000005 1.286710 5.513450 -7.084800 12.994500 -0.242716 -4.980390 89.788100 0.564611 -69.430900 -5.348130 -0.000001 -0.000004 -49.508300 27.020600 -31.004400 -24.328900 0.000322 -0.000009 4.255790 3.989760 -46.931500 -22.291500 -0.000108 -0.000004 6.510990 5.554880 -8.938390 -2.192480 -6.469440 -0.000000 -166.166000 -1.016550 -25.877300 39.081100 -0.000007 -0.000012 -0.292213 0.646957 24.308000 40.985400 -0.000006 -0.000013 -14.760700 5.842520 -50.356200 11.754300 -0.000000 0.000003 -0.014438 -0.134263 -22.053900 -2.192510 6.469440 -0.000001 174.242000 1.834630 -169.289000 -39.081100 -0.002282 -0.040193 -0.016090 0.030707 32.267100 -40.985400 0.000008 0.000006 11.422000 12.817300 -80.709100 -11.754300 -0.000006 -0.000006 -0.028404 -0.210053 -25.174700
0.000000 0.000000 0.000000 0.000000 0.000000 -0.000000 135.512000 85.761200 155.490000 92.629000 -42.143700 5.452300 15.735700 0.000005 -0.000001 103.932000 81.334500 -104.492000 8.984550 -0.406207 -0.000000 9.093340 4.144020 -1.450000 16.377300 -0.000001 -0.000001 10.419000 -16.438200 5.134290 6.456720 -0.000001 -0.000000 4.419730 -30.686600 3.869350 12.994200 -0.242716 4.980390 -89.272400 -1.516370 -64.362300 5.348090 -0.000007 -0.000001 -67.107000 32.735900 4.269730 24.328600 0.000019 0.000005 6.380320 9.795000 -33.316300 22.291600 -0.000001 0.000005 2.016000 5.520320 -7.374710 12.994500 -0.242716 -4.980390 89.388600 1.614690 -69.257300 -5.348130 -0.000001 -0.000004 -50.265700 28.032700 -28.043800 -24.328900 0.000322 -0.000009 4.185670 4.056620 -45.980000 -22.291500 -0.000108 -0.000004 6.793120 5.557440 -9.062710 -2.192480 -6.469440 -0.000000 -167.890000 -2.417490 -27.295100 39.081100 -0.000007 -0.000012 -0.232807 0.350727 33.576000 40.985400 -0.000006 -0.000013 -12.871800 4.311620 -52.402100 11.754300 -0.000000 0.000003 -0.006130 -0.072024 -19.508100 -2.192510 6.469440 -0.000001 171.938000 -0.496743 -168.344000 -39.081100 -0.002282 -0.040193 0.005804 -0.003548 35.316900 -40.985400 0.000008 0.000006 11.581000 13.100700 -79.027700 -11.754300 -0.000006 -0.000006 -0.054851 -0.314655 -29.549800
0.000000 0.000000 0.000000 0.000000 0.000000 -0.000000 134.335000 85.442600 159.587000 92.946200 -44.651300 6.930290 15.735700 0.000005 -0.000001 101.951000 80.895200 -102.766000 8.984550 -0.406207 -0.000000 10.091700 3.730210 -1.957810 16.377300 -0.000001 -0.000001 10.176000 -16.163300 4.632340 6.456720 -0.000001 -0.000000 4.394970 -29.374700 4.492230 12.994200 -0.242716 4.980390 -89.319900 -1.466690 -65.119000 5.348090 -0.000007 -0.000001 -65.980600 32.628500 1.177430 24.328600 0.000019 0.000005 6.424820 10.191900 -32.472300 22.291600 -0.000001 0.000005 2.818460 5.518130 -7.282530 12.994500 -0.242716 -4.980390 89.308000 1.800890 -68.976600 -5.348130 -0.000001 -0.000004 -53.900100 27.780300 -24.167900 -24.328900 0.000322 -0.000009 4.641440 4.883030 -43.652800 -22.291500 -0.000108 -0.000004 7.307380 5.558560 -9.115140 -2.192480 -6.469440 -0.000000 -168.901000 -6.073390 -26.231300 39.081100 -0.000007 -0.000012 -0.198625 0.231979 40.571300 40.985400 -0.000006 -0.000013 -10.823400 6.915750 -58.413800 11.754300 -0.000000 0.000003 -0.002231 -0.031575 -17.860700 -2.192510 6.469440 -0.000001 170.061000 -1.916010 -168.706000 -39.081100 -0.002282 -0.040193 0.058198 -0.064046 40.614000 -40.985400 0.000008 0.000006 11.584800 14.781300 -74.163600 -11.754300 -0.000006 -0.000006 -0.108015 -0.464020 -35.980600
